<svg width="482" height="694" viewBox="0 0 482 694" fill="none" xmlns="http://www.w3.org/2000/svg"><g filter="url(#filter0_d_1_100)"><path d="M472.429 637L472.429 661.923L479 661.923L467.5 691L456 661.923L462.571 661.923L462.571 637L472.429 637Z" fill="white"/><path d="M472.429 637L472.429 661.923L479 661.923L467.5 691L456 661.923L462.571 661.923L462.571 637L472.429 637Z" stroke="black" stroke-width="2" stroke-linecap="round" stroke-linejoin="round"/></g><g filter="url(#filter1_d_1_100)"><path d="M17.4286 1.08496L17.4286 31.689L24 31.689L12.5 67.3937L0.999999 31.689L7.57143 31.689L7.57143 1.08496L17.4286 1.08496Z" fill="white"/><path d="M17.4286 1.08496L17.4286 31.689L24 31.689L12.5 67.3937L0.999999 31.689L7.57143 31.689L7.57143 1.08496L17.4286 1.08496Z" stroke="black" stroke-width="2" stroke-linecap="round" stroke-linejoin="round"/></g><defs><filter id="filter0_d_1_100" x="455" y="636" width="27" height="58" filterUnits="userSpaceOnUse" color-interpolation-filters="sRGB"><feFlood flood-opacity="0" result="BackgroundImageFix"/><feColorMatrix in="SourceAlpha" type="matrix" values="0 0 0 0 0 0 0 0 0 0 0 0 0 0 0 0 0 0 127 0" result="hardAlpha"/><feOffset dx="2" dy="2"/><feComposite in2="hardAlpha" operator="out"/><feColorMatrix type="matrix" values="0 0 0 0 0 0 0 0 0 0 0 0 0 0 0 0 0 0 1 0"/><feBlend mode="normal" in2="BackgroundImageFix" result="effect1_dropShadow_1_100"/><feBlend mode="normal" in="SourceGraphic" in2="effect1_dropShadow_1_100" result="shape"/></filter><filter id="filter1_d_1_100" x="0" y="0.0849609" width="27" height="70.3087" filterUnits="userSpaceOnUse" color-interpolation-filters="sRGB"><feFlood flood-opacity="0" result="BackgroundImageFix"/><feColorMatrix in="SourceAlpha" type="matrix" values="0 0 0 0 0 0 0 0 0 0 0 0 0 0 0 0 0 0 127 0" result="hardAlpha"/><feOffset dx="2" dy="2"/><feComposite in2="hardAlpha" operator="out"/><feColorMatrix type="matrix" values="0 0 0 0 0 0 0 0 0 0 0 0 0 0 0 0 0 0 1 0"/><feBlend mode="normal" in2="BackgroundImageFix" result="effect1_dropShadow_1_100"/><feBlend mode="normal" in="SourceGraphic" in2="effect1_dropShadow_1_100" result="shape"/></filter></defs></svg>