<svg xmlns="http://www.w3.org/2000/svg" xmlns:xlink="http://www.w3.org/1999/xlink"><defs>
<filter id="filter0_d_1_102" x="0" y="0.0849609" width="27" height="70.3087" filterUnits="userSpaceOnUse" color-interpolation-filters="sRGB">
<feFlood flood-opacity="0" result="BackgroundImageFix"/>
<feColorMatrix in="SourceAlpha" type="matrix" values="0 0 0 0 0 0 0 0 0 0 0 0 0 0 0 0 0 0 127 0" result="hardAlpha"/>
<feOffset dx="2" dy="2"/>
<feComposite in2="hardAlpha" operator="out"/>
<feColorMatrix type="matrix" values="0 0 0 0 0 0 0 0 0 0 0 0 0 0 0 0 0 0 1 0"/>
<feBlend mode="normal" in2="BackgroundImageFix" result="effect1_dropShadow_1_102"/>
<feBlend mode="normal" in="SourceGraphic" in2="effect1_dropShadow_1_102" result="shape"/>
</filter>
</defs><symbol id="arrow" viewBox="0 0 27 71"><g fill="none">
<g filter="url(#filter0_d_1_102)">
<path d="M17.4286 1.08496L17.4286 31.689L24 31.689L12.5 67.3937L0.999999 31.689L7.57143 31.689L7.57143 1.08496L17.4286 1.08496Z" fill="white"/>
<path d="M17.4286 1.08496L17.4286 31.689L24 31.689L12.5 67.3937L0.999999 31.689L7.57143 31.689L7.57143 1.08496L17.4286 1.08496Z" stroke="black" stroke-width="2" stroke-linecap="round" stroke-linejoin="round"/>
</g>

</g></symbol><symbol id="toggle-close" viewBox="0 0 66 66"><g fill="none">
<rect x="8.48535" y="0.707107" width="79" height="11" transform="rotate(45 8.48535 0.707107)" fill="#FF69CA" stroke="black"/>
<rect x="64.3466" y="8.48535" width="79" height="11" transform="rotate(135 64.3466 8.48535)" fill="#92CCFE" stroke="black"/>
</g></symbol><symbol id="toggle-open" viewBox="0 0 80 52"><g fill="none">
<rect x="0.5" y="0.5" width="79" height="11" fill="#FF69CA" stroke="black"/>
<rect x="0.5" y="20.5" width="79" height="11" fill="#FFE249" stroke="black"/>
<rect x="0.5" y="40.5" width="79" height="11" fill="#92CCFE" stroke="black"/>
</g></symbol></svg>