<svg xmlns="http://www.w3.org/2000/svg" xmlns:xlink="http://www.w3.org/1999/xlink"><defs><filter id="filter0_d_1_100" x="455" y="636" width="27" height="58" filterUnits="userSpaceOnUse" color-interpolation-filters="sRGB"><feFlood flood-opacity="0" result="BackgroundImageFix"/><feColorMatrix in="SourceAlpha" type="matrix" values="0 0 0 0 0 0 0 0 0 0 0 0 0 0 0 0 0 0 127 0" result="hardAlpha"/><feOffset dx="2" dy="2"/><feComposite in2="hardAlpha" operator="out"/><feColorMatrix type="matrix" values="0 0 0 0 0 0 0 0 0 0 0 0 0 0 0 0 0 0 1 0"/><feBlend mode="normal" in2="BackgroundImageFix" result="effect1_dropShadow_1_100"/><feBlend mode="normal" in="SourceGraphic" in2="effect1_dropShadow_1_100" result="shape"/></filter><filter id="filter1_d_1_100" x="0" y="0.0849609" width="27" height="70.3087" filterUnits="userSpaceOnUse" color-interpolation-filters="sRGB"><feFlood flood-opacity="0" result="BackgroundImageFix"/><feColorMatrix in="SourceAlpha" type="matrix" values="0 0 0 0 0 0 0 0 0 0 0 0 0 0 0 0 0 0 127 0" result="hardAlpha"/><feOffset dx="2" dy="2"/><feComposite in2="hardAlpha" operator="out"/><feColorMatrix type="matrix" values="0 0 0 0 0 0 0 0 0 0 0 0 0 0 0 0 0 0 1 0"/><feBlend mode="normal" in2="BackgroundImageFix" result="effect1_dropShadow_1_100"/><feBlend mode="normal" in="SourceGraphic" in2="effect1_dropShadow_1_100" result="shape"/></filter><pattern id="pattern0" patternContentUnits="objectBoundingBox" width="1" height="1"><use xlink:href="#image0_206_291" transform="scale(0.00195312)"/></pattern><pattern id="pattern0" patternContentUnits="objectBoundingBox" width="1" height="1"><use xlink:href="#image0_206_292" transform="scale(0.00195312)"/></pattern><pattern id="pattern0" patternContentUnits="objectBoundingBox" width="1" height="1"><use xlink:href="#image0_206_290" transform="matrix(0.00195312 0 0 0.00237165 0 -0.107143)"/></pattern></defs><symbol id="arrows" viewBox="0 0 482 694"><g fill="none"><g filter="url(#filter0_d_1_100)"><path d="M472.429 637L472.429 661.923L479 661.923L467.5 691L456 661.923L462.571 661.923L462.571 637L472.429 637Z" fill="white"/><path d="M472.429 637L472.429 661.923L479 661.923L467.5 691L456 661.923L462.571 661.923L462.571 637L472.429 637Z" stroke="black" stroke-width="2" stroke-linecap="round" stroke-linejoin="round"/></g><g filter="url(#filter1_d_1_100)"><path d="M17.4286 1.08496L17.4286 31.689L24 31.689L12.5 67.3937L0.999999 31.689L7.57143 31.689L7.57143 1.08496L17.4286 1.08496Z" fill="white"/><path d="M17.4286 1.08496L17.4286 31.689L24 31.689L12.5 67.3937L0.999999 31.689L7.57143 31.689L7.57143 1.08496L17.4286 1.08496Z" stroke="black" stroke-width="2" stroke-linecap="round" stroke-linejoin="round"/></g></g></symbol><symbol id="telegram" viewBox="0 0 48 48"><g fill="none"><rect width="48" height="48" fill="url(#pattern0)"/></g></symbol><symbol id="toggle-close" viewBox="0 0 66 66"><g fill="none"><rect x="8.48535" y="0.707107" width="79" height="11" transform="rotate(45 8.48535 0.707107)" fill="#FF69CA" stroke="black"/><rect x="64.3466" y="8.48535" width="79" height="11" transform="rotate(135 64.3466 8.48535)" fill="#92CCFE" stroke="black"/></g></symbol><symbol id="toggle-open" viewBox="0 0 80 52"><g fill="none"><rect x="0.5" y="0.5" width="79" height="11" fill="#FF69CA" stroke="black"/><rect x="0.5" y="20.5" width="79" height="11" fill="#FFE249" stroke="black"/><rect x="0.5" y="40.5" width="79" height="11" fill="#92CCFE" stroke="black"/></g></symbol><symbol id="vk" viewBox="0 0 48 48"><g fill="none"><rect width="48" height="48" fill="url(#pattern0)"/></g></symbol><symbol id="youtube" viewBox="0 0 68 56"><g fill="none"><rect width="68" height="56" fill="url(#pattern0)"/></g></symbol></svg>